<?xml version="1.0" encoding="UTF-8" standalone="no"?>
<svg
   xmlns:dc="http://purl.org/dc/elements/1.1/"
   xmlns:cc="http://creativecommons.org/ns#"
   xmlns:rdf="http://www.w3.org/1999/02/22-rdf-syntax-ns#"
   xmlns:svg="http://www.w3.org/2000/svg"
   xmlns="http://www.w3.org/2000/svg"
   xmlns:sodipodi="http://sodipodi.sourceforge.net/DTD/sodipodi-0.dtd"
   xmlns:inkscape="http://www.inkscape.org/namespaces/inkscape"
   inkscape:export-ydpi="768"
   inkscape:export-xdpi="768"
   inkscape:export-filename="C:\Users\adnan\Downloads\export filled line + export expand adnan\export filled line\png\6 - Save Water.png"
   sodipodi:docname="7 - Eco Tag.svg"
   inkscape:version="1.0 (4035a4fb49, 2020-05-01)"
   id="svg979"
   version="1.1"
   viewBox="0 0 16.933334 16.933333"
   height="48pt"
   width="48pt">
  <defs
     id="defs973" />
  <sodipodi:namedview
     inkscape:snap-others="false"
     inkscape:snap-nodes="false"
     inkscape:bbox-nodes="true"
     inkscape:snap-bbox="true"
     inkscape:document-rotation="0"
     inkscape:window-maximized="1"
     inkscape:window-y="-8"
     inkscape:window-x="-8"
     inkscape:window-height="706"
     inkscape:window-width="1366"
     units="pt"
     showgrid="false"
     inkscape:current-layer="layer1"
     inkscape:document-units="pt"
     inkscape:cy="32"
     inkscape:cx="32"
     inkscape:zoom="8.546875"
     inkscape:pageshadow="2"
     inkscape:pageopacity="0.0"
     borderopacity="1.0"
     bordercolor="#666666"
     pagecolor="#ffffff"
     id="base">
    <inkscape:grid
       id="grid1526"
       type="xygrid" />
    <sodipodi:guide
       inkscape:locked="false"
       id="guide1528"
       orientation="56.666615,0"
       position="0.97013909,15.963209" />
    <sodipodi:guide
       inkscape:locked="false"
       id="guide1530"
       orientation="0,56.666667"
       position="0.97013909,0.97016731" />
    <sodipodi:guide
       inkscape:locked="false"
       id="guide1532"
       orientation="-56.666615,0"
       position="15.963195,0.97016731" />
    <sodipodi:guide
       inkscape:locked="false"
       id="guide1534"
       orientation="0,-56.666667"
       position="15.963195,15.963209" />
  </sodipodi:namedview>
  <metadata
     id="metadata976">
    <rdf:RDF>
      <cc:Work
         rdf:about="">
        <dc:format>image/svg+xml</dc:format>
        <dc:type
           rdf:resource="http://purl.org/dc/dcmitype/StillImage" />
        <dc:title></dc:title>
      </cc:Work>
    </rdf:RDF>
  </metadata>
  <g
     transform="translate(0,-280.06668)"
     id="layer1"
     inkscape:groupmode="layer"
     inkscape:label="Layer 1">
    <g
       transform="matrix(1.2469578,0,0,1.2469578,27.998344,-73.894776)"
       style="display:inline;stroke-width:0.801952"
       id="g1154">
      <path
         style="color:#000000;font-style:normal;font-variant:normal;font-weight:normal;font-stretch:normal;font-size:medium;line-height:normal;font-family:sans-serif;font-variant-ligatures:normal;font-variant-position:normal;font-variant-caps:normal;font-variant-numeric:normal;font-variant-alternates:normal;font-variant-east-asian:normal;font-feature-settings:normal;font-variation-settings:normal;text-indent:0;text-align:start;text-decoration:none;text-decoration-line:none;text-decoration-style:solid;text-decoration-color:#000000;letter-spacing:normal;word-spacing:normal;text-transform:none;writing-mode:lr-tb;direction:ltr;text-orientation:mixed;dominant-baseline:auto;baseline-shift:baseline;text-anchor:start;white-space:normal;shape-padding:0;shape-margin:0;inline-size:0;clip-rule:nonzero;display:inline;overflow:visible;visibility:visible;isolation:auto;mix-blend-mode:normal;color-interpolation:sRGB;color-interpolation-filters:linearRGB;solid-color:#000000;solid-opacity:1;vector-effect:none;fill:#d0a38c;fill-opacity:1;fill-rule:nonzero;stroke:none;stroke-width:0.424366;stroke-linecap:round;stroke-linejoin:round;stroke-miterlimit:4;stroke-dasharray:none;stroke-dashoffset:0;stroke-opacity:1;color-rendering:auto;image-rendering:auto;shape-rendering:auto;text-rendering:auto;enable-background:accumulate;stop-color:#000000"
         d="m -17.783203,284.66992 c -0.418357,-0.076 -0.847748,0.0568 -1.148438,0.35742 l -2.345703,2.34571 c -0.292062,0.29202 -0.49538,0.7363 -0.349609,1.18359 l 0.810547,2.48438 c 0.100529,0.30847 0.218625,0.65225 0.496094,0.92968 l 4.318359,4.31836 c 0.482725,0.48266 1.275069,0.48269 1.757812,0 l 4.230469,-4.23047 c 0.4827394,-0.48268 0.4827288,-1.27319 0,-1.75586 l -4.318359,-4.31835 c -0.263002,-0.26297 -0.600863,-0.43935 -0.966797,-0.50586 l 0.03516,0.01 -2.484375,-0.81055 a 0.26460996,0.26460996 0 0 0 -0.03516,-0.008 z"
         id="path1096" />
      <path
         id="path1108"
         style="fill:#d39679;fill-opacity:1;stroke:none;stroke-width:1.6039;stroke-linecap:round;stroke-linejoin:round"
         d="m -67.806641,1.3261719 c -1.385444,-0.080826 -2.751686,0.4276986 -3.746093,1.421875 l -8.865235,8.8671871 c -0.163983,0.16396 -0.316937,0.34374 -0.46289,0.53125 3.39641,3.305893 9.584336,11.038882 14.439453,8.611328 3.501294,-1.750639 7.429336,-2.40876 10.958984,-0.291015 5.092139,3.055262 8.985159,8.516971 14.636719,11.855469 l 2.998047,-2.998047 c 1.824527,-1.824303 1.824487,-4.812454 0,-6.636719 L -54.167969,6.3652344 c -0.97098,-0.970862 -2.214449,-1.6204564 -3.560547,-1.8847656 l -9.351562,-3.0527344 a 1.0001006,1.0001006 0 0 0 -0.132813,-0.029297 c -0.197649,-0.035905 -0.395829,-0.060719 -0.59375,-0.072265 z"
         transform="matrix(0.26458333,0,0,0.26458333,0,284.3)" />
      <path
         id="path1513"
         d="m -20.615234,285.43359 a 0.2645835,0.2645835 0 0 0 -0.177735,0.0762 0.2645835,0.2645835 0 0 0 0,0.375 l 1.394531,1.39648 a 0.2645835,0.2645835 0 0 0 0.375,0 0.2645835,0.2645835 0 0 0 0,-0.375 l -1.396484,-1.39648 a 0.2645835,0.2645835 0 0 0 -0.195312,-0.0762 z"
         style="color:#000000;font-style:normal;font-variant:normal;font-weight:normal;font-stretch:normal;font-size:medium;line-height:normal;font-family:sans-serif;font-variant-ligatures:normal;font-variant-position:normal;font-variant-caps:normal;font-variant-numeric:normal;font-variant-alternates:normal;font-variant-east-asian:normal;font-feature-settings:normal;font-variation-settings:normal;text-indent:0;text-align:start;text-decoration:none;text-decoration-line:none;text-decoration-style:solid;text-decoration-color:#000000;letter-spacing:normal;word-spacing:normal;text-transform:none;writing-mode:lr-tb;direction:ltr;text-orientation:mixed;dominant-baseline:auto;baseline-shift:baseline;text-anchor:start;white-space:normal;shape-padding:0;shape-margin:0;inline-size:0;clip-rule:nonzero;display:inline;overflow:visible;visibility:visible;opacity:1;isolation:auto;mix-blend-mode:normal;color-interpolation:sRGB;color-interpolation-filters:linearRGB;solid-color:#000000;solid-opacity:1;vector-effect:none;fill:#9a605c;fill-opacity:1;fill-rule:nonzero;stroke:none;stroke-width:0.424366;stroke-linecap:round;stroke-linejoin:round;stroke-miterlimit:4;stroke-dasharray:none;stroke-dashoffset:0;stroke-opacity:1;color-rendering:auto;image-rendering:auto;shape-rendering:auto;text-rendering:auto;enable-background:accumulate;stop-color:#000000;stop-opacity:1" />
      <path
         id="path1501"
         d="m -19.609782,289.99802 c -0.325729,0.32573 -0.325729,0.86199 0,1.18772 l 3.862846,3.86284 c 0.325736,0.32574 0.861992,0.32574 1.187721,10e-6 l 3.30351,-3.30351 c 0.325736,-0.32574 0.325736,-0.86199 0,-1.18773 l -3.862846,-3.86284 c -0.325729,-0.32573 -0.861984,-0.32573 -1.18772,0 z"
         style="color:#000000;font-style:normal;font-variant:normal;font-weight:normal;font-stretch:normal;font-size:medium;line-height:normal;font-family:sans-serif;font-variant-ligatures:normal;font-variant-position:normal;font-variant-caps:normal;font-variant-numeric:normal;font-variant-alternates:normal;font-variant-east-asian:normal;font-feature-settings:normal;font-variation-settings:normal;text-indent:0;text-align:start;text-decoration:none;text-decoration-line:none;text-decoration-style:solid;text-decoration-color:#000000;letter-spacing:normal;word-spacing:normal;text-transform:none;writing-mode:lr-tb;direction:ltr;text-orientation:mixed;dominant-baseline:auto;baseline-shift:baseline;text-anchor:start;white-space:normal;shape-padding:0;shape-margin:0;inline-size:0;clip-rule:nonzero;display:inline;overflow:visible;visibility:visible;isolation:auto;mix-blend-mode:normal;color-interpolation:sRGB;color-interpolation-filters:linearRGB;solid-color:#000000;solid-opacity:1;vector-effect:none;fill:#f5f6e8;fill-opacity:1;fill-rule:nonzero;stroke:none;stroke-width:0.424366;stroke-linecap:round;stroke-linejoin:round;stroke-miterlimit:4;stroke-dasharray:none;stroke-dashoffset:0;stroke-opacity:1;color-rendering:auto;image-rendering:auto;shape-rendering:auto;text-rendering:auto;enable-background:accumulate;stop-color:#000000" />
      <path
         id="path1116"
         style="fill:#f3f6d1;fill-opacity:1;stroke:none;stroke-width:1.6039;stroke-linecap:round;stroke-linejoin:round"
         d="m -59.384766,8.1269531 c -0.814476,0 -1.630529,0.3082754 -2.246093,0.9238281 L -72.431641,19.851562 c 2.037291,1.256077 4.113047,1.844843 5.990235,0.90625 3.501294,-1.750638 7.429336,-2.40876 10.958984,-0.291015 3.988983,2.393373 7.252327,6.252513 11.191406,9.421875 l 1.75,-1.75 c 1.231129,-1.231143 1.231129,-3.257138 0,-4.488281 L -57.140625,9.0507812 c -0.615551,-0.6155527 -1.429664,-0.9238281 -2.244141,-0.9238281 z"
         transform="matrix(0.26458333,0,0,0.26458333,0,284.3)" />
      <path
         id="path1439"
         d="m -13.570312,290.41992 a 0.2645835,0.2645835 0 0 0 -0.177735,0.0781 l -2.058594,2.05664 a 0.2645835,0.2645835 0 0 0 0,0.375 0.2645835,0.2645835 0 0 0 0.373047,0 l 2.058594,-2.0586 a 0.2645835,0.2645835 0 0 0 0,-0.37304 0.2645835,0.2645835 0 0 0 -0.195312,-0.0781 z"
         style="color:#000000;font-style:normal;font-variant:normal;font-weight:normal;font-stretch:normal;font-size:medium;line-height:normal;font-family:sans-serif;font-variant-ligatures:normal;font-variant-position:normal;font-variant-caps:normal;font-variant-numeric:normal;font-variant-alternates:normal;font-variant-east-asian:normal;font-feature-settings:normal;font-variation-settings:normal;text-indent:0;text-align:start;text-decoration:none;text-decoration-line:none;text-decoration-style:solid;text-decoration-color:#000000;letter-spacing:normal;word-spacing:normal;text-transform:none;writing-mode:lr-tb;direction:ltr;text-orientation:mixed;dominant-baseline:auto;baseline-shift:baseline;text-anchor:start;white-space:normal;shape-padding:0;shape-margin:0;inline-size:0;clip-rule:nonzero;display:inline;overflow:visible;visibility:visible;opacity:1;isolation:auto;mix-blend-mode:normal;color-interpolation:sRGB;color-interpolation-filters:linearRGB;solid-color:#000000;solid-opacity:1;vector-effect:none;fill:#9a605c;fill-opacity:1;fill-rule:nonzero;stroke:none;stroke-width:0.424366;stroke-linecap:round;stroke-linejoin:round;stroke-miterlimit:4;stroke-dasharray:none;stroke-dashoffset:0;stroke-opacity:1;color-rendering:auto;image-rendering:auto;shape-rendering:auto;text-rendering:auto;enable-background:accumulate;stop-color:#000000;stop-opacity:1" />
      <path
         id="path1443"
         d="m -12.541016,290.88672 a 0.2645835,0.2645835 0 0 0 -0.179687,0.0781 l -2.619141,2.61914 a 0.2645835,0.2645835 0 0 0 0,0.375 0.2645835,0.2645835 0 0 0 0.375,0 l 2.619141,-2.61914 a 0.2645835,0.2645835 0 0 0 0,-0.375 0.2645835,0.2645835 0 0 0 -0.195313,-0.0781 z"
         style="color:#000000;font-style:normal;font-variant:normal;font-weight:normal;font-stretch:normal;font-size:medium;line-height:normal;font-family:sans-serif;font-variant-ligatures:normal;font-variant-position:normal;font-variant-caps:normal;font-variant-numeric:normal;font-variant-alternates:normal;font-variant-east-asian:normal;font-feature-settings:normal;font-variation-settings:normal;text-indent:0;text-align:start;text-decoration:none;text-decoration-line:none;text-decoration-style:solid;text-decoration-color:#000000;letter-spacing:normal;word-spacing:normal;text-transform:none;writing-mode:lr-tb;direction:ltr;text-orientation:mixed;dominant-baseline:auto;baseline-shift:baseline;text-anchor:start;white-space:normal;shape-padding:0;shape-margin:0;inline-size:0;clip-rule:nonzero;display:inline;overflow:visible;visibility:visible;opacity:1;isolation:auto;mix-blend-mode:normal;color-interpolation:sRGB;color-interpolation-filters:linearRGB;solid-color:#000000;solid-opacity:1;vector-effect:none;fill:#9a605c;fill-opacity:1;fill-rule:nonzero;stroke:none;stroke-width:0.424366;stroke-linecap:round;stroke-linejoin:round;stroke-miterlimit:4;stroke-dasharray:none;stroke-dashoffset:0;stroke-opacity:1;color-rendering:auto;image-rendering:auto;shape-rendering:auto;text-rendering:auto;enable-background:accumulate;stop-color:#000000;stop-opacity:1" />
      <path
         id="path1449"
         d="m -15.899437,287.78305 a 0.26384353,0.26537833 45 0 0 -0.0359,0.0438 c 0,0 -0.290747,0.4407 -0.543042,0.75566 -0.11183,0.14043 -0.242543,0.26085 -0.357964,0.43525 -0.11542,0.17441 -0.197096,0.41051 -0.183273,0.69549 a 0.26384353,0.26537833 45 0 0 9.32e-4,0.0165 c 0.03406,0.30034 0.164402,0.54425 0.349815,0.69976 0.115676,0.097 0.255067,0.1613 0.407571,0.16844 0.152089,0.007 0.31549,-0.0523 0.430843,-0.16796 l 0.427716,-0.42771 a 0.26384353,0.26537833 45 0 0 0.03105,-0.037 c 0.333206,-0.48314 0.290285,-1.03621 0.179611,-1.43987 -0.110675,-0.40366 -0.298451,-0.69701 -0.298451,-0.69701 a 0.26384353,0.26537833 45 0 0 -0.408895,-0.0453 z"
         style="color:#000000;font-style:normal;font-variant:normal;font-weight:normal;font-stretch:normal;font-size:medium;line-height:normal;font-family:sans-serif;font-variant-ligatures:normal;font-variant-position:normal;font-variant-caps:normal;font-variant-numeric:normal;font-variant-alternates:normal;font-variant-east-asian:normal;font-feature-settings:normal;font-variation-settings:normal;text-indent:0;text-align:start;text-decoration:none;text-decoration-line:none;text-decoration-style:solid;text-decoration-color:#000000;letter-spacing:normal;word-spacing:normal;text-transform:none;writing-mode:lr-tb;direction:ltr;text-orientation:mixed;dominant-baseline:auto;baseline-shift:baseline;text-anchor:start;white-space:normal;shape-padding:0;shape-margin:0;inline-size:0;clip-rule:nonzero;display:inline;overflow:visible;visibility:visible;isolation:auto;mix-blend-mode:normal;color-interpolation:sRGB;color-interpolation-filters:linearRGB;solid-color:#000000;solid-opacity:1;vector-effect:none;fill:#50b86b;fill-opacity:1;fill-rule:nonzero;stroke:none;stroke-width:0.424366;stroke-linecap:round;stroke-linejoin:round;stroke-miterlimit:4;stroke-dasharray:none;stroke-dashoffset:0;stroke-opacity:1;color-rendering:auto;image-rendering:auto;shape-rendering:auto;text-rendering:auto;enable-background:accumulate;stop-color:#000000" />
      <path
         id="path1455"
         d="m -16.685274,290.03984 a 0.26381714,0.26535179 45 0 0 -0.0011,0.37414 l 0.94906,0.94906 a 0.26381714,0.26535179 45 0 0 0.374142,-0.001 0.26381714,0.26535179 45 0 0 0.0011,-0.37415 l -0.94906,-0.94906 a 0.26381714,0.26535179 45 0 0 -0.374143,10e-4 z"
         style="color:#000000;font-style:normal;font-variant:normal;font-weight:normal;font-stretch:normal;font-size:medium;line-height:normal;font-family:sans-serif;font-variant-ligatures:normal;font-variant-position:normal;font-variant-caps:normal;font-variant-numeric:normal;font-variant-alternates:normal;font-variant-east-asian:normal;font-feature-settings:normal;font-variation-settings:normal;text-indent:0;text-align:start;text-decoration:none;text-decoration-line:none;text-decoration-style:solid;text-decoration-color:#000000;letter-spacing:normal;word-spacing:normal;text-transform:none;writing-mode:lr-tb;direction:ltr;text-orientation:mixed;dominant-baseline:auto;baseline-shift:baseline;text-anchor:start;white-space:normal;shape-padding:0;shape-margin:0;inline-size:0;clip-rule:nonzero;display:inline;overflow:visible;visibility:visible;isolation:auto;mix-blend-mode:normal;color-interpolation:sRGB;color-interpolation-filters:linearRGB;solid-color:#000000;solid-opacity:1;vector-effect:none;fill:#50b86b;fill-opacity:1;fill-rule:nonzero;stroke:none;stroke-width:0.424366;stroke-linecap:round;stroke-linejoin:round;stroke-miterlimit:4;stroke-dasharray:none;stroke-dashoffset:0;stroke-opacity:1;color-rendering:auto;image-rendering:auto;shape-rendering:auto;text-rendering:auto;enable-background:accumulate;stop-color:#000000" />
      <path
         id="path1461"
         d="m -18.239012,290.71217 a 0.26384353,0.26537833 45 0 0 0.05894,0.39723 c 0,0 0.865088,0.57577 1.603956,0.0603 a 0.26384353,0.26537833 45 0 0 0.03602,-0.0301 l 0.309123,-0.30912 c 0.09662,-0.0959 0.149494,-0.23361 0.14547,-0.36196 -0.004,-0.12836 -0.05771,-0.2444 -0.135689,-0.33788 -0.124985,-0.14984 -0.317781,-0.24809 -0.548789,-0.27077 a 0.26384353,0.26537833 45 0 0 -0.01746,4e-5 c -0.217108,-0.007 -0.404238,0.0599 -0.538377,0.14986 -0.134144,0.0899 -0.22161,0.18479 -0.31866,0.26264 a 0.26384353,0.26537833 45 0 0 -9.7e-4,9.7e-4 c -0.223161,0.17983 -0.540121,0.39114 -0.540121,0.39114 a 0.26384353,0.26537833 45 0 0 -0.05352,0.0476 z"
         style="color:#000000;font-style:normal;font-variant:normal;font-weight:normal;font-stretch:normal;font-size:medium;line-height:normal;font-family:sans-serif;font-variant-ligatures:normal;font-variant-position:normal;font-variant-caps:normal;font-variant-numeric:normal;font-variant-alternates:normal;font-variant-east-asian:normal;font-feature-settings:normal;font-variation-settings:normal;text-indent:0;text-align:start;text-decoration:none;text-decoration-line:none;text-decoration-style:solid;text-decoration-color:#000000;letter-spacing:normal;word-spacing:normal;text-transform:none;writing-mode:lr-tb;direction:ltr;text-orientation:mixed;dominant-baseline:auto;baseline-shift:baseline;text-anchor:start;white-space:normal;shape-padding:0;shape-margin:0;inline-size:0;clip-rule:nonzero;display:inline;overflow:visible;visibility:visible;isolation:auto;mix-blend-mode:normal;color-interpolation:sRGB;color-interpolation-filters:linearRGB;solid-color:#000000;solid-opacity:1;vector-effect:none;fill:#50b86b;fill-opacity:1;fill-rule:nonzero;stroke:none;stroke-width:0.424366;stroke-linecap:round;stroke-linejoin:round;stroke-miterlimit:4;stroke-dasharray:none;stroke-dashoffset:0;stroke-opacity:1;color-rendering:auto;image-rendering:auto;shape-rendering:auto;text-rendering:auto;enable-background:accumulate;stop-color:#000000" />
      <path
         style="color:#000000;font-style:normal;font-variant:normal;font-weight:normal;font-stretch:normal;font-size:medium;line-height:normal;font-family:sans-serif;font-variant-ligatures:normal;font-variant-position:normal;font-variant-caps:normal;font-variant-numeric:normal;font-variant-alternates:normal;font-variant-east-asian:normal;font-feature-settings:normal;font-variation-settings:normal;text-indent:0;text-align:start;text-decoration:none;text-decoration-line:none;text-decoration-style:solid;text-decoration-color:#000000;letter-spacing:normal;word-spacing:normal;text-transform:none;writing-mode:lr-tb;direction:ltr;text-orientation:mixed;dominant-baseline:auto;baseline-shift:baseline;text-anchor:start;white-space:normal;shape-padding:0;shape-margin:0;inline-size:0;clip-rule:nonzero;display:inline;overflow:visible;visibility:visible;isolation:auto;mix-blend-mode:normal;color-interpolation:sRGB;color-interpolation-filters:linearRGB;solid-color:#000000;solid-opacity:1;vector-effect:none;fill:#9a605c;fill-opacity:1;fill-rule:nonzero;stroke:none;stroke-width:0.424366;stroke-linecap:round;stroke-linejoin:round;stroke-miterlimit:4;stroke-dasharray:none;stroke-dashoffset:0;stroke-opacity:1;color-rendering:auto;image-rendering:auto;shape-rendering:auto;text-rendering:auto;enable-background:accumulate;stop-color:#000000"
         d="m -19.398438,286.90625 c -0.29193,0.29189 -0.29193,0.77451 0,1.06641 0.291927,0.29189 0.774477,0.29189 1.066407,0 0.29193,-0.2919 0.291931,-0.77452 0,-1.06641 -0.291927,-0.2919 -0.774477,-0.29189 -1.066407,0 z"
         id="path1080" />
      <path
         id="path1123"
         style="fill:#419658;fill-opacity:1;stroke:none;stroke-width:1.6039;stroke-linecap:round;stroke-linejoin:round"
         d="m -59.394531,12.875 a 0.99720389,1.0030047 45 0 0 -0.697266,0.289062 0.99720389,1.0030047 45 0 0 -0.136719,0.166016 c 0,0 -1.099178,1.665069 -2.052734,2.855469 -0.422665,0.530759 -0.915326,0.985382 -1.351562,1.644531 -0.353403,0.534024 -0.611928,1.228642 -0.673829,2.042969 2.299584,-0.790056 4.700753,-1.021205 7.001953,-0.246094 0.326281,-1.306451 0.172791,-2.612865 -0.113281,-3.65625 -0.418299,-1.525644 -1.128906,-2.634765 -1.128906,-2.634765 A 0.99720389,1.0030047 45 0 0 -59.394531,12.875 Z"
         transform="matrix(0.26458333,0,0,0.26458333,0,284.3)" />
      <path
         id="path1128"
         style="fill:#90524e;fill-opacity:1;stroke:none;stroke-width:1.6039;stroke-linecap:round;stroke-linejoin:round"
         d="m -47.398438,24.894531 a 1.0000006,1.0000006 0 0 0 -0.679687,0.294922 l -0.703125,0.703125 c 0.488661,0.455414 0.974437,0.908797 1.470703,1.365234 l 0.650391,-0.65039 a 1.0000006,1.0000006 0 0 0 0,-1.417969 1.0000006,1.0000006 0 0 0 -0.738282,-0.294922 z"
         transform="matrix(0.26458333,0,0,0.26458333,0,284.3)" />
      <path
         id="path1135"
         style="fill:#90524e;fill-opacity:1;stroke:none;stroke-width:1.6039;stroke-linecap:round;stroke-linejoin:round"
         d="m -51.289062,23.130859 a 1.0000006,1.0000006 0 0 0 -0.431641,0.117188 c 0.468157,0.399614 0.933991,0.808763 1.396484,1.228515 a 1.0000006,1.0000006 0 0 0 -0.226562,-1.050781 1.0000006,1.0000006 0 0 0 -0.738281,-0.294922 z"
         transform="matrix(0.26458333,0,0,0.26458333,0,284.3)" />
    </g>
    <path
       d="m 5.6274795,281.05295 c -0.4570909,-0.0267 -0.9078476,0.14111 -1.2359269,0.4691 l -1.2288385,1.22884 -0.6269854,-0.62698 a 0.32992445,0.32992445 0 0 0 -0.243577,-0.0948 0.32992445,0.32992445 0 0 0 -0.2216679,0.0948 0.32992445,0.32992445 0 0 0 0,0.46782 l 0.625696,0.62635 -1.229483,1.22948 c -0.3641889,0.36413 -0.6180185,0.91788 -0.4362469,1.47563 l 1.0110371,3.09821 c 0.1253555,0.38465 0.2726149,0.8133 0.6186071,1.15924 l 5.3844672,5.38447 c 0.601938,0.60185 1.5902316,0.60189 2.1921917,0 l 5.274922,-5.27492 c 0.601956,-0.6019 0.601943,-1.58775 0,-2.18962 l -5.384467,-5.38511 C 9.8068584,282.39515 9.3966081,282.18082 8.9524978,282.09362 L 5.867191,281.08646 a 0.32995744,0.32995744 0 0 0 -0.043818,-0.01 c -0.065216,-0.0125 -0.1305939,-0.0201 -0.1958935,-0.0238 z m -0.1578734,0.66178 c 0.075927,-0.005 0.1533472,-10e-4 0.230045,0.0125 l 3.0614648,0.99622 a 0.32995744,0.32995744 0 0 0 0.043818,0.0125 c 0.3243351,0.059 0.6213668,0.21544 0.8544518,0.4485 l 5.3851123,5.38446 c 0.349751,0.34971 0.3498,0.90678 0,1.25655 l -5.2755656,5.27556 c -0.3497969,0.34976 -0.9068054,0.3497 -1.2565482,0 l -5.3851123,-5.38511 c -0.2150365,-0.21547 -0.33962,-0.52907 -0.4600887,-0.89873 l -1.0084596,-3.09825 c -0.07993,-0.24527 0.042683,-0.57304 0.2757959,-0.80612 l 1.2281948,-1.22756 0.4581561,0.45881 c -0.154417,0.34612 -0.092961,0.76925 0.1888044,1.05098 0.3640207,0.36398 0.9653384,0.36398 1.329363,0 0.3640243,-0.36398 0.3640255,-0.96603 0,-1.33 -0.281619,-0.2816 -0.7043167,-0.34227 -1.050345,-0.18817 l -0.4581572,-0.45815 1.2288396,-1.2282 c 0.1653092,-0.16528 0.3824306,-0.26093 0.6102309,-0.27579 z m 2.9364545,1.58196 c -0.2687154,0 -0.537951,0.10175 -0.7410405,0.30479 l -4.1188988,4.1189 c -0.4061692,0.40617 -0.4061692,1.07527 0,1.48144 l 4.8167662,4.81676 c 0.4061777,0.40618 1.0746233,0.40617 1.4807924,0 l 4.1195421,-4.11954 c 0.406179,-0.40618 0.406179,-1.07461 0,-1.4808 L 9.1464569,283.60148 C 8.9433724,283.3984 8.6747764,283.29669 8.4060606,283.29669 Z m 0,0.65469 c 0.097974,0 0.1959883,0.0388 0.2738633,0.11659 l 4.8167651,4.81676 c 0.155757,0.15576 0.155757,0.39197 0,0.54773 l -4.1195425,4.11955 c -0.1557585,0.15575 -0.3919671,0.15575 -0.547726,0 L 4.0126556,288.7346 c -0.1557488,-0.15576 -0.1557587,-0.39134 0,-0.54709 l 4.1195422,-4.11954 c 0.077872,-0.0779 0.1758919,-0.11659 0.2738628,-0.11659 z m -3.9313823,0.29771 c 0.070678,0 0.1412667,0.0278 0.1971815,0.0838 0.1118272,0.11186 0.1118646,0.28252 0,0.39437 -0.1118645,0.11185 -0.2831778,0.11185 -0.3950078,0 -0.1118271,-0.11185 -0.1118645,-0.28251 0,-0.39437 0.055926,-0.0559 0.1271512,-0.0838 0.1978263,-0.0838 z m 3.9378268,0.61474 a 0.32995744,0.32995744 0 0 0 -0.2848177,0.14886 c 0,0 -0.3625092,0.54915 -0.6772463,0.94208 -0.1395947,0.17528 -0.3041694,0.32607 -0.4478475,0.54322 -0.1436771,0.21715 -0.2440635,0.50933 -0.2268229,0.86475 a 0.32995744,0.32995744 0 0 0 0.00261,0.022 c 0.00736,0.0646 0.022594,0.12407 0.036735,0.18429 -0.1641908,0.0302 -0.308591,0.0906 -0.4214267,0.16625 -0.1669279,0.11186 -0.2783073,0.22953 -0.3995166,0.32669 -0.2783359,0.22449 -0.6720929,0.4891 -0.6720929,0.4891 a 0.32995744,0.32995744 0 0 0 0.00711,0.55288 c 0,0 1.0798969,0.71956 1.9995217,0.0779 a 0.32995744,0.32995744 0 0 0 0.046399,-0.0367 l 0.3614993,-0.36151 0.639228,0.63923 a 0.32992445,0.32992445 0 0 0 0.465245,0 0.32992445,0.32992445 0 0 0 0,-0.46717 L 8.196068,288.31067 c 0.021359,-0.017 0.043768,-0.032 0.063146,-0.0515 l 0.5335496,-0.53354 a 0.32995744,0.32995744 0 0 0 0.038668,-0.0438 c 0.4148867,-0.60157 0.362315,-1.29166 0.2242443,-1.79525 -0.1380706,-0.50357 -0.3724524,-0.86928 -0.3724524,-0.86928 a 0.32995744,0.32995744 0 0 0 -0.2706412,-0.15336 z m -0.080553,0.99364 c 0.038306,0.0938 0.053582,0.0853 0.085703,0.20234 0.1087472,0.39664 0.1295068,0.85404 -0.1295213,1.23721 l -0.4968191,0.49682 c -0.018519,0.0187 -0.015648,0.0152 -0.036087,0.0142 -0.020439,-9.6e-4 -0.065365,-0.0125 -0.1172764,-0.0554 -0.08099,-0.068 -0.1710877,-0.21385 -0.1997589,-0.4311 -0.00885,-0.22303 0.029901,-0.33256 0.1146952,-0.46072 0.086589,-0.13086 0.2410008,-0.27741 0.4136943,-0.49425 h -0.00198 c 0.1782027,-0.22247 0.2308669,-0.313 0.3672975,-0.50907 z m -1.3003665,2.35264 c 0.1203813,0.016 0.1947311,0.0618 0.2255349,0.0942 l 0.011597,0.0112 -0.3247702,0.32542 c -0.2247503,0.15182 -0.3299823,0.007 -0.5677013,-0.0438 0.013978,-0.0112 0.017883,-0.0112 0.031574,-0.022 v 0.002 c 0.1614712,-0.12947 0.2677803,-0.23858 0.3511894,-0.29448 0.080541,-0.054 0.1360043,-0.0763 0.2725739,-0.0735 z m 4.0454394,0.0368 a 0.32992445,0.32992445 0 0 0 -0.221668,0.0973 l -2.5672231,2.56464 a 0.32992445,0.32992445 0 0 0 0,0.46718 0.32992445,0.32992445 0 0 0 0.4652449,0 l 2.5672232,-2.56658 a 0.32992445,0.32992445 0 0 0 0,-0.46524 0.32992445,0.32992445 0 0 0 -0.243577,-0.0973 z m 1.28361,0.58187 a 0.32992445,0.32992445 0 0 0 -0.224245,0.0973 l -3.2657337,3.26638 a 0.32992445,0.32992445 0 0 0 0,0.46719 0.32992445,0.32992445 0 0 0 0.4671777,0 l 3.26638,-3.26574 a 0.32992445,0.32992445 0 0 0 0,-0.46783 0.32992445,0.32992445 0 0 0 -0.243579,-0.0973 z"
       style="color:#000000;font-style:normal;font-variant:normal;font-weight:normal;font-stretch:normal;font-size:medium;line-height:normal;font-family:sans-serif;font-variant-ligatures:normal;font-variant-position:normal;font-variant-caps:normal;font-variant-numeric:normal;font-variant-alternates:normal;font-variant-east-asian:normal;font-feature-settings:normal;font-variation-settings:normal;text-indent:0;text-align:start;text-decoration:none;text-decoration-line:none;text-decoration-style:solid;text-decoration-color:#000000;letter-spacing:normal;word-spacing:normal;text-transform:none;writing-mode:lr-tb;direction:ltr;text-orientation:mixed;dominant-baseline:auto;baseline-shift:baseline;text-anchor:start;white-space:normal;shape-padding:0;shape-margin:0;inline-size:0;clip-rule:nonzero;display:inline;overflow:visible;visibility:visible;opacity:1;isolation:auto;mix-blend-mode:normal;color-interpolation:sRGB;color-interpolation-filters:linearRGB;solid-color:#000000;solid-opacity:1;vector-effect:none;fill:#000000;fill-opacity:1;fill-rule:nonzero;stroke:none;stroke-width:0.529167;stroke-linecap:round;stroke-linejoin:round;stroke-miterlimit:4;stroke-dasharray:none;stroke-dashoffset:0;stroke-opacity:1;color-rendering:auto;image-rendering:auto;shape-rendering:auto;text-rendering:auto;enable-background:accumulate;stop-color:#000000;stop-opacity:1"
       id="path1605" />
  </g>
</svg>
